<?xml version="1.0" encoding="UTF-8" standalone="no"?>
<svg
   viewBox="0 0 528.33 528.33"
   version="1.1"
   id="svg86"
   sodipodi:docname="icon.svg"
   inkscape:version="1.2 (dc2aeda, 2022-05-15)"
   xmlns:inkscape="http://www.inkscape.org/namespaces/inkscape"
   xmlns:sodipodi="http://sodipodi.sourceforge.net/DTD/sodipodi-0.dtd"
   xmlns="http://www.w3.org/2000/svg"
   xmlns:svg="http://www.w3.org/2000/svg">
  <defs
     id="defs90" />
  <sodipodi:namedview
     id="namedview88"
     pagecolor="#ffffff"
     bordercolor="#000000"
     borderopacity="0.25"
     inkscape:showpageshadow="2"
     inkscape:pageopacity="0.0"
     inkscape:pagecheckerboard="0"
     inkscape:deskcolor="#d1d1d1"
     showgrid="false"
     inkscape:zoom="0.4466905"
     inkscape:cx="-92.90549"
     inkscape:cy="265.28435"
     inkscape:window-width="1920"
     inkscape:window-height="1027"
     inkscape:window-x="1792"
     inkscape:window-y="25"
     inkscape:window-maximized="0"
     inkscape:current-layer="Layer_2" />
  <title
     id="title78">MS_2019_Master_Emblem_Logo_Black</title>
  <g
     id="Layer_2"
     data-name="Layer 2"
     style="fill:#0000ff"
     transform="rotate(-1.8476103,264.165,264.165)">
    <g
       id="Layer_1-2"
       data-name="Layer 1"
       style="fill:#3e85d0;fill-opacity:0.90155441">
      <path
         d="M 264.17,0 C 118.27,0 0,118.27 0,264.17 c 0,145.9 118.27,264.16 264.17,264.16 145.9,0 264.16,-118.27 264.16,-264.16 C 528.33,118.28 410.06,0 264.17,0 Z m 0,505.1 C 131.1,505.1 23.23,397.23 23.23,264.17 23.23,131.11 131.1,23.23 264.17,23.23 397.24,23.23 505.1,131.1 505.1,264.17 505.1,397.24 397.23,505.1 264.17,505.1 Z"
         id="path80"
         style="fill:#3e85d0;fill-opacity:0.90155441" />
      <path
         d="m 454.4,211.65 0.06,0.06 C 433.18,132.38 367.29,96.11 367.29,96.11 l -7.4,11.61 -95.58,149.63 h -0.06 l -95.71,-150 -7.2,-11.29 c 0,0 -65.89,36.27 -87.17,115.6 v 0 C 59.92,260.59 65.56,315.15 94.05,363.84 A 197.18,197.18 0 0 0 181,443 l 17.65,-67.39 C 159,356.89 130.18,319 130.18,270.16 A 124.32,124.32 0 0 1 150.94,201 l 82.61,129.13 H 295 L 377.62,201 a 124.32,124.32 0 0 1 20.76,69.15 c 0,48.87 -28.79,86.73 -68.43,105.45 L 347.6,443 a 197.18,197.18 0 0 0 86.9,-79.12 c 28.5,-48.7 34.15,-103.29 19.9,-152.23 z"
         id="path82"
         style="fill:#3e85d0;fill-opacity:0.90155441" />
    </g>
  </g>
</svg>
